<svg width="21" height="21" viewBox="0 0 21 21" fill="none" xmlns="http://www.w3.org/2000/svg">
<path d="M13.5877 18.0147V16.299C13.5877 15.389 13.2298 14.5162 12.5928 13.8727C11.9557 13.2292 11.0917 12.8677 10.1908 12.8677H5.09541C4.19449 12.8677 3.33047 13.2292 2.69342 13.8727C2.05638 14.5162 1.69849 15.389 1.69849 16.299V18.0147" stroke="#214289" stroke-width="2" stroke-linecap="round" stroke-linejoin="round"/>
<path d="M7.64302 9.43629C9.51909 9.43629 11.0399 7.90001 11.0399 6.00492C11.0399 4.10983 9.51909 2.57355 7.64302 2.57355C5.76695 2.57355 4.24609 4.10983 4.24609 6.00492C4.24609 7.90001 5.76695 9.43629 7.64302 9.43629Z" stroke="#214289" stroke-width="2" stroke-linecap="round" stroke-linejoin="round"/>
<path d="M18.6832 18.0147V16.299C18.6826 15.5388 18.4321 14.8002 17.971 14.1993C17.5099 13.5984 16.8642 13.1693 16.1355 12.9792" stroke="#214289" stroke-width="2" stroke-linecap="round" stroke-linejoin="round"/>
<path d="M13.5876 2.68506C14.3183 2.87404 14.966 3.30331 15.4285 3.90518C15.891 4.50705 16.142 5.24729 16.142 6.0092C16.142 6.77111 15.891 7.51135 15.4285 8.11322C14.966 8.71509 14.3183 9.14436 13.5876 9.33334" stroke="#214289" stroke-width="2" stroke-linecap="round" stroke-linejoin="round"/>
</svg>
