<svg width="24" height="24" viewBox="0 0 24 24" fill="none" xmlns="http://www.w3.org/2000/svg">
<path d="M23.9328 6.92774C23.8752 5.67244 23.6687 4.81355 23.3759 4.06321C23.0686 3.28926 22.6605 2.62858 21.9932 1.97733C21.3259 1.32609 20.6585 0.915519 19.8712 0.618211C19.1078 0.325623 18.234 0.127418 16.957 0.0707875C15.6751 0.0141575 15.2671 0 12.012 0C8.75215 0 8.34407 0.0141575 7.06701 0.0707875C5.78996 0.127418 4.91618 0.330342 4.15283 0.618211C3.36067 0.920238 2.68854 1.32137 2.02601 1.97733C1.36347 2.6333 0.945791 3.28926 0.64333 4.06321C0.350471 4.81355 0.14403 5.67244 0.0864187 6.92774C0.0288072 8.18776 0.0144043 8.58889 0.0144043 11.7885C0.0144043 14.9928 0.0288072 15.3939 0.0864187 16.6492C0.14403 17.9045 0.350471 18.7634 0.64333 19.5138C0.950592 20.2877 1.35867 20.9484 2.02601 21.5996C2.68854 22.2556 3.36067 22.6615 4.14803 22.9588C4.91138 23.2514 5.78516 23.4496 7.06221 23.5062C8.34407 23.5628 8.75215 23.577 12.0072 23.577C15.2671 23.577 15.6751 23.5628 16.9522 23.5062C18.2292 23.4496 19.103 23.2466 19.8664 22.9588C20.6537 22.6567 21.3259 22.2556 21.9884 21.5996C22.6509 20.9437 23.0686 20.2877 23.3711 19.5138C23.6687 18.7634 23.8704 17.9045 23.928 16.6492C23.9856 15.3892 24 14.9881 24 11.7885C24 8.58889 23.9904 8.18304 23.9328 6.92774ZM21.7772 16.5548C21.7243 17.7063 21.5275 18.334 21.3643 18.7445C21.1482 19.292 20.8842 19.6884 20.4617 20.1037C20.0392 20.519 19.6407 20.7691 19.079 20.9909C18.6565 21.1513 18.018 21.3448 16.8514 21.3967C15.5887 21.4533 15.2094 21.4675 12.0024 21.4675C8.79536 21.4675 8.41608 21.4533 7.15343 21.3967C5.982 21.3448 5.34347 21.1513 4.92579 20.9909C4.36888 20.7785 3.96559 20.519 3.54311 20.1037C3.12063 19.6884 2.86617 19.2967 2.64053 18.7445C2.4773 18.3293 2.28046 17.7016 2.22765 16.5548C2.17004 15.3137 2.15563 14.9409 2.15563 11.7885C2.15563 8.63608 2.17004 8.26327 2.22765 7.02213C2.28046 5.87065 2.4773 5.243 2.64053 4.83243C2.85657 4.28501 3.12063 3.8886 3.54311 3.47331C3.96559 3.05802 4.36407 2.80791 4.92579 2.58611C5.34827 2.42565 5.9868 2.23217 7.15343 2.18026C8.41608 2.12363 8.79536 2.10947 12.0024 2.10947C15.2094 2.10947 15.5887 2.12363 16.8514 2.18026C18.0228 2.23217 18.6613 2.42565 19.079 2.58611C19.6359 2.79847 20.0392 3.05802 20.4617 3.47331C20.8842 3.8886 21.1386 4.28029 21.3643 4.83243C21.5275 5.24772 21.7243 5.87537 21.7772 7.02213C21.8348 8.26327 21.8492 8.63608 21.8492 11.7885C21.8492 14.9409 21.83 15.3137 21.7772 16.5548Z" fill="url(#paint0_linear_245_189)"/>
<path d="M12.0024 5.729C8.59376 5.729 5.83801 8.44253 5.83801 11.7884C5.83801 15.139 8.59856 17.8478 12.0024 17.8478C15.4063 17.8478 18.1669 15.1296 18.1669 11.7884C18.1669 8.43781 15.4111 5.729 12.0024 5.729ZM12.0024 15.7195C9.794 15.7195 8.00325 13.9592 8.00325 11.7884C8.00325 9.6176 9.794 7.85735 12.0024 7.85735C14.2109 7.85735 16.0016 9.6176 16.0016 11.7884C16.0016 13.9592 14.2109 15.7195 12.0024 15.7195Z" fill="url(#paint1_linear_245_189)"/>
<path d="M18.4069 6.9089C19.2024 6.9089 19.8472 6.27504 19.8472 5.49314C19.8472 4.71125 19.2024 4.07739 18.4069 4.07739C17.6115 4.07739 16.9666 4.71125 16.9666 5.49314C16.9666 6.27504 17.6115 6.9089 18.4069 6.9089Z" fill="#BC30A0"/>
<path d="M0 11.7885C0 14.9928 0.0144029 15.3939 0.0720144 16.6492C0.129626 17.9045 0.336067 18.7634 0.628926 19.5138C0.936187 20.2877 1.34427 20.9484 2.0116 21.5996C2.67413 22.2509 3.34627 22.6615 4.13363 22.9588C4.89698 23.2514 5.77075 23.4496 7.04781 23.5062C8.32967 23.5628 8.73775 23.577 11.9928 23.577C15.2527 23.577 15.6607 23.5628 16.9378 23.5062C18.2148 23.4496 19.0886 23.2466 19.852 22.9588C20.6393 22.6567 21.3115 22.2556 21.974 21.5996C22.6365 20.9484 23.0542 20.2877 23.3567 19.5138C23.6543 18.7634 23.856 17.9045 23.9136 16.6492C23.9712 15.3892 23.9856 14.9881 23.9856 11.7885C23.9856 8.58417 23.9712 8.18304 23.9136 6.92774C23.856 5.67244 23.6495 4.81355 23.3567 4.06321C23.0494 3.28926 22.6413 2.62858 21.974 1.97733C21.3163 1.32137 20.6441 0.915519 19.8568 0.618211C19.0934 0.325623 18.2196 0.127418 16.9426 0.0707875C15.6607 0.0141575 15.2527 0 11.9976 0C8.73775 0 8.32967 0.0141575 7.05261 0.0707875C5.77555 0.127418 4.90178 0.330342 4.13843 0.618211C3.35107 0.920238 2.67894 1.32137 2.0164 1.97733C1.35387 2.6333 0.936187 3.28926 0.633727 4.06321C0.336067 4.81355 0.129626 5.67244 0.0720144 6.92774C0.0144029 8.18304 0 8.58417 0 11.7885ZM2.16523 11.7885C2.16523 8.6408 2.17964 8.26327 2.23725 7.02213C2.29006 5.87065 2.4869 5.243 2.65013 4.83243C2.86617 4.28501 3.13023 3.8886 3.55271 3.47331C3.97519 3.05802 4.37367 2.80791 4.93539 2.58611C5.35787 2.42565 5.9964 2.23217 7.16303 2.18026C8.42568 2.12363 8.80496 2.10947 12.012 2.10947C15.219 2.10947 15.5983 2.12363 16.861 2.18026C18.0324 2.23217 18.6709 2.42565 19.0886 2.58611C19.6455 2.79847 20.0488 3.05802 20.4713 3.47331C20.8938 3.8886 21.1482 4.28029 21.3739 4.83243C21.5371 5.24772 21.7339 5.87537 21.7868 7.02213C21.8444 8.26327 21.8588 8.63608 21.8588 11.7885C21.8588 14.9409 21.8444 15.3137 21.7868 16.5548C21.7339 17.7063 21.5371 18.334 21.3739 18.7445C21.1578 19.292 20.8938 19.6884 20.4713 20.1037C20.0488 20.519 19.6503 20.7691 19.0886 20.9909C18.6661 21.1513 18.0276 21.3448 16.861 21.3967C15.5983 21.4533 15.219 21.4675 12.012 21.4675C8.80496 21.4675 8.42568 21.4533 7.16303 21.3967C5.9916 21.3448 5.35307 21.1513 4.93539 20.9909C4.37848 20.7785 3.97519 20.519 3.55271 20.1037C3.13023 19.6884 2.87578 19.2967 2.65013 18.7445C2.4869 18.3293 2.29006 17.7016 2.23725 16.5548C2.17483 15.3137 2.16523 14.9362 2.16523 11.7885Z" fill="url(#paint2_linear_245_189)"/>
<defs>
<linearGradient id="paint0_linear_245_189" x1="20.2955" y1="1.80286" x2="3.30231" y2="22.9964" gradientUnits="userSpaceOnUse">
<stop stop-color="#AE3DAE"/>
<stop offset="0.0468721" stop-color="#B23BA6"/>
<stop offset="0.1216" stop-color="#BD368E"/>
<stop offset="0.2148" stop-color="#CE2E69"/>
<stop offset="0.3216" stop-color="#E62335"/>
<stop offset="0.418" stop-color="#FF1800"/>
</linearGradient>
<linearGradient id="paint1_linear_245_189" x1="14.9423" y1="6.92848" x2="8.79918" y2="17.4362" gradientUnits="userSpaceOnUse">
<stop stop-color="#E12F6A"/>
<stop offset="0.1705" stop-color="#EA3751"/>
<stop offset="0.3563" stop-color="#F13D3E"/>
<stop offset="0.5467" stop-color="#F64133"/>
<stop offset="0.7469" stop-color="#F7422F"/>
<stop offset="0.7946" stop-color="#F74C2F"/>
<stop offset="0.8743" stop-color="#F7652F"/>
<stop offset="0.9757" stop-color="#F78F2E"/>
<stop offset="1" stop-color="#F79A2E"/>
</linearGradient>
<linearGradient id="paint2_linear_245_189" x1="17.4381" y1="-0.970616" x2="7.13122" y2="24.0381" gradientUnits="userSpaceOnUse">
<stop offset="0.2341" stop-color="#9E35A5" stop-opacity="0"/>
<stop offset="0.4512" stop-color="#D42F7F" stop-opacity="0.5"/>
<stop offset="0.7524" stop-color="#F7772E"/>
<stop offset="0.9624" stop-color="#FEF780"/>
</linearGradient>
</defs>
</svg>
