<svg width="24" height="23" viewBox="0 0 24 23" fill="none" xmlns="http://www.w3.org/2000/svg">
<path d="M6.93303 13.6379C7.89831 13.6379 8.82404 13.3525 9.50659 12.8445C10.1891 12.3365 10.5726 11.6474 10.5726 10.929C10.5726 9.4336 9.84468 8.76177 9.11677 7.67818C7.55613 5.35605 8.79067 3.2853 12.0284 1.17664C12.7563 3.88561 14.9401 6.48623 17.8517 8.21998C20.7634 9.95372 22.2192 12.0125 22.2192 14.1797C22.2192 15.1758 21.9556 16.1622 21.4435 17.0824C20.9313 18.0027 20.1807 18.8389 19.2344 19.5432C18.2881 20.2476 17.1647 20.8063 15.9283 21.1875C14.6919 21.5687 13.3667 21.7649 12.0284 21.7649C10.6901 21.7649 9.36498 21.5687 8.12858 21.1875C6.89218 20.8063 5.76876 20.2476 4.82246 19.5432C3.87615 18.8389 3.12551 18.0027 2.61337 17.0824C2.10124 16.1622 1.83765 15.1758 1.83765 14.1797C1.83765 12.9303 2.46802 11.694 3.29347 10.929C3.29347 11.6474 3.67692 12.3365 4.35947 12.8445C5.04203 13.3525 5.96776 13.6379 6.93303 13.6379Z" stroke="#214289" stroke-width="2" stroke-linecap="round" stroke-linejoin="round"/>
</svg>
