<svg width="23" height="19" viewBox="0 0 23 19" fill="none" xmlns="http://www.w3.org/2000/svg">
<path d="M20.457 4.69649C20.4663 4.90397 20.4663 5.10201 20.4663 5.30949C20.4755 11.5998 15.7711 18.8616 7.16783 18.8616C4.63038 18.8616 2.13924 18.1165 0 16.7208C0.370431 16.7679 0.740861 16.7868 1.11129 16.7868C3.21349 16.7868 5.26011 16.0701 6.91779 14.7403C4.91746 14.7026 3.15792 13.3728 2.54671 11.4301C3.25053 11.5716 3.97287 11.5433 4.65816 11.3452C2.48188 10.9114 0.916816 8.95922 0.907555 6.68639C0.907555 6.66753 0.907555 6.64867 0.907555 6.62981C1.55581 6.99761 2.28741 7.20509 3.02827 7.22395C0.981641 5.82819 0.342648 3.04609 1.58359 0.867575C3.96361 3.84771 7.46418 5.649 11.224 5.84705C10.8444 4.19665 11.363 2.46138 12.5761 1.29196C14.4561 -0.509325 17.4195 -0.415017 19.1976 1.49944C20.244 1.29196 21.2535 0.895867 22.1703 0.339449C21.8184 1.44286 21.0868 2.37651 20.1144 2.97065C21.0405 2.85748 21.948 2.60285 22.8 2.22561C22.1703 3.18756 21.3738 4.01747 20.457 4.69649Z" fill="#1D9BF0"/>
</svg>
