<svg width="24" height="24" viewBox="0 0 24 24" fill="none" xmlns="http://www.w3.org/2000/svg">
<rect width="24" height="24" rx="12" fill="url(#paint0_linear_245_232)"/>
<path d="M4.72098 18.9814L5.74991 15.245C5.11378 14.1483 4.78007 12.9063 4.78355 11.6366C4.78355 7.65807 8.0372 4.42334 12.0313 4.42334C13.971 4.42334 15.7924 5.17407 17.1586 6.53716C18.5282 7.90025 19.2825 9.71308 19.279 11.6401C19.279 15.6186 16.0253 18.8534 12.0278 18.8534H12.0243C10.8112 18.8534 9.61884 18.5489 8.55862 17.9746L4.72098 18.9814ZM8.74286 16.6704L8.96185 16.8018C9.8865 17.3484 10.9467 17.6356 12.0278 17.639H12.0313C15.351 17.639 18.0554 14.9509 18.0554 11.6435C18.0554 10.0417 17.4297 8.53681 16.293 7.40206C15.1563 6.26731 13.6407 5.64458 12.0313 5.64458C8.71157 5.64112 6.00714 8.32924 6.00714 11.6366C6.00714 12.7679 6.32347 13.8715 6.92832 14.8264L7.07084 15.0547L6.46252 17.2654L8.74286 16.6704Z" fill="white"/>
<path d="M4.97476 18.7287L5.96893 15.1203C5.35366 14.0652 5.03038 12.8647 5.03038 11.64C5.03386 7.79981 8.1728 4.67578 12.0313 4.67578C13.9049 4.67578 15.6604 5.4023 16.9813 6.71695C18.3022 8.0316 19.0287 9.78216 19.0287 11.6434C19.0287 15.4836 15.8863 18.6076 12.0313 18.6076H12.0278C10.8564 18.6076 9.70577 18.3136 8.68379 17.76L4.97476 18.7287Z" fill="url(#paint1_linear_245_232)"/>
<path d="M4.72098 18.9814L5.74991 15.245C5.11378 14.1483 4.78007 12.9063 4.78355 11.6366C4.78355 7.65807 8.0372 4.42334 12.0313 4.42334C13.971 4.42334 15.7924 5.17407 17.1586 6.53716C18.5282 7.90025 19.2825 9.71308 19.279 11.6401C19.279 15.6186 16.0253 18.8534 12.0278 18.8534H12.0243C10.8112 18.8534 9.61884 18.5489 8.55862 17.9746L4.72098 18.9814ZM8.74286 16.6704L8.96185 16.8018C9.8865 17.3484 10.9467 17.6356 12.0278 17.639H12.0313C15.351 17.639 18.0554 14.9509 18.0554 11.6435C18.0554 10.0417 17.4297 8.53681 16.293 7.40206C15.1563 6.26731 13.6407 5.64458 12.0313 5.64458C8.71157 5.64112 6.00714 8.32924 6.00714 11.6366C6.00714 12.7679 6.32347 13.8715 6.92832 14.8264L7.07084 15.0547L6.46252 17.2654L8.74286 16.6704Z" fill="url(#paint2_linear_245_232)"/>
<path fill-rule="evenodd" clip-rule="evenodd" d="M10.2202 8.61976C10.0846 8.31877 9.94207 8.31185 9.81346 8.30839C9.70917 8.30493 9.58751 8.30493 9.46584 8.30493C9.34418 8.30493 9.14952 8.34991 8.98266 8.52981C8.81581 8.70971 8.35001 9.14562 8.35001 10.0347C8.35001 10.9204 9.00004 11.7784 9.09042 11.8995C9.1808 12.0206 10.3453 13.8991 12.1842 14.6222C13.7137 15.2241 14.0265 15.1031 14.3568 15.0719C14.687 15.0408 15.4274 14.636 15.5803 14.2139C15.7298 13.7919 15.7298 13.4321 15.6846 13.356C15.6394 13.2799 15.5178 13.2349 15.337 13.1449C15.1563 13.055 14.2664 12.6191 14.0995 12.5568C13.9327 12.498 13.811 12.4668 13.6928 12.6467C13.5711 12.8266 13.2235 13.2314 13.1193 13.3525C13.015 13.4736 12.9072 13.4874 12.7264 13.3975C12.5457 13.3075 11.9617 13.1172 11.27 12.5014C10.7312 12.024 10.3662 11.4324 10.2619 11.2525C10.1576 11.0726 10.2514 10.9757 10.3418 10.8858C10.4218 10.8062 10.5226 10.6748 10.613 10.571C10.7033 10.4672 10.7346 10.3911 10.7937 10.27C10.8528 10.1489 10.825 10.0451 10.7798 9.95517C10.7346 9.86867 10.3801 8.9761 10.2202 8.61976Z" fill="white"/>
<defs>
<linearGradient id="paint0_linear_245_232" x1="11.9994" y1="23.9988" x2="11.9994" y2="-0.000839698" gradientUnits="userSpaceOnUse">
<stop stop-color="#20B038"/>
<stop offset="1" stop-color="#60D66A"/>
</linearGradient>
<linearGradient id="paint1_linear_245_232" x1="12.0014" y1="18.728" x2="12.0014" y2="4.67529" gradientUnits="userSpaceOnUse">
<stop stop-color="#20B038"/>
<stop offset="1" stop-color="#60D66A"/>
</linearGradient>
<linearGradient id="paint2_linear_245_232" x1="12.0014" y1="18.98" x2="12.0014" y2="4.42334" gradientUnits="userSpaceOnUse">
<stop stop-color="#F9F9F9"/>
<stop offset="1" stop-color="white"/>
</linearGradient>
</defs>
</svg>
